PathFileType	4	(X/Y/Z)	D:/ViconDB/Teaching_2017/Workshops/171025_A1_Demo01/Demo/171025_Guy_ROM_body_01_unlab.trc
DataRate	CameraRate	NumFrames	NumMarkers	Units	OrigDataRate	OrigDataStartFrame	OrigNumFrames
120.000000	120.000000	4	1	mm	120.000000	76	120
Frame#	Time	Unlabeled_Markers			
		X0	Y0	Z0	
76	0.633333				163.548248	83.553734	96.337830	-35.354355	1843.404419	-14.250532	-178.358078	79.235565	82.864265	129.229477	68.390648	-191.254532	126.871758	85.669083	51.726196	-204.390854	76.934158	27.138603	237.593048	1221.629272	-66.746696	-124.373772	76.113281	42.896049	-116.872330	75.856689	-194.330658	142.935181	1501.753784	-110.355705	179.478714	124.522629	-134.940399	208.096466	79.414726	42.542774	-7.050346	1553.775391	-98.706024	-178.977417	127.436134	-146.436783	-303.734253	865.440491	45.228436	196.183670	332.897552	-93.356873	263.829834	926.917603	36.777184	263.417175	1168.649902	-7.573165	-169.217819	1501.478516	-107.729980	65.820908	1734.727905	-40.485004	-238.604019	1207.635498	-105.262764	-198.583130	413.100830	-92.973946	238.190887	1356.453369	-32.499168	-90.389320	1717.263550	-72.538933	-300.255463	1047.835693	-11.153073	118.085159	1171.964844	-95.971619	-283.084290	919.299805	-10.389671	-291.894226	1167.105713	-50.986790	-185.435867	565.966919	-20.280775	-101.414330	1788.866821	57.368710	183.359512	662.738159	-15.901412	276.564758	872.435364	94.350014	257.207458	887.873169	120.541832	175.573944	549.475098	-13.459111	-0.792391	1375.336670	-128.695892	-116.984375	1157.840698	-111.965881	-257.376251	1361.882202	-49.535328	-10.198560	1484.003906	76.491112	-292.981781	871.704773	84.765724	-160.686630	650.541504	42.918350	-156.238419	1508.719238	10.115232	260.981018	1054.897339	53.427242	-201.936722	1011.888611	-60.550892	25.931549	1794.120850	76.626343	185.037918	981.751587	-19.809803	-136.053696	753.163513	67.062515	-140.911423	1093.260254	90.485573	114.167122	630.020935	50.382557	127.256790	1506.899780	29.435608	-3.445362	1347.464478	118.831749	-257.078003	944.662354	63.658138	210.071014	933.567810	101.725540	118.753914	1090.011475	89.607605																																																																																																																																																																																																																																																																																																																																																																																																																																																																																																																																																																																																															
77	0.641667				163.607269	83.599297	96.339386	-35.374577	1843.408691	-14.168789	-178.333145	79.256088	82.882210	129.272644	68.389030	-191.265030	126.898933	85.671242	51.716869	-204.359711	76.952927	27.147682	237.596191	1221.649048	-66.780769	-124.371445	76.131531	42.920116	-116.882774	75.831810	-194.281708	142.920563	1501.745361	-110.351364	179.456177	124.475212	-134.946030	208.095215	79.398323	42.536739	-7.053907	1553.795288	-98.687973	-178.937012	127.436554	-146.475693	-303.744080	865.474670	45.132805	196.163651	332.853302	-93.375656	263.865082	926.875610	36.623928	263.410858	1168.622681	-7.659350	-169.201416	1501.488770	-107.756363	65.813400	1734.706299	-40.484634	-238.555664	1207.640747	-105.306160	-198.596115	413.152008	-93.015945	238.184235	1356.434814	-32.495529	-90.410385	1717.293335	-72.501961	-300.229431	1047.869385	-11.223825	118.075096	1171.966431	-96.024467	-283.053131	919.315674	-10.507696	-291.878571	1167.129761	-51.060150	-185.475266	566.011292	-20.298620	-101.437721	1788.877808	57.450809	183.325851	662.714966	-15.949348	276.591370	872.346008	94.137825	257.845703	888.395813	120.725449	175.568634	549.456360	-13.496106	-0.800871	1375.368408	-128.699890	-116.987656	1157.844360	-111.964180	-257.490784	1361.759644	-49.648659	-10.187278	1484.024658	76.511803	-292.991730	871.747864	84.709846	-160.658661	650.588928	42.916920	-156.210266	1508.735840	10.130783	260.970459	1054.828979	53.287170	-201.943481	1011.922607	-60.576721	25.858822	1794.055054	76.680084	184.996567	981.711975	-19.875111	-136.067780	753.202332	67.049263	-140.919586	1093.292847	90.475174	114.147316	629.998535	50.332939	126.849113	1506.460449	29.203964	-3.463256	1347.474243	118.822716	-257.084869	944.656128	63.587105	211.605209	934.992676	102.810753	118.722733	1089.997803	89.567940																																																																																																																																																																																																																																																																																																																																																																																																																																																																																																																																																																																																															
78	0.650000				163.613602	83.616913	96.354431	-35.420830	1843.429199	-14.093327	-178.291809	79.281921	82.923782	129.244736	68.428116	-191.250427	126.886154	85.652252	51.735806	-204.354935	76.963646	27.159044	237.569061	1221.687134	-66.805443	-124.329254	76.138947	42.968826	-116.846489	75.858566	-194.259003	142.916992	1501.790771	-110.334251	179.472290	124.468628	-134.939590	208.104355	79.385658	42.539848	-7.061848	1553.825439	-98.690895	-178.985489	127.506561	-146.459808	-303.125610	865.361694	45.475262	196.156403	332.871643	-93.414955	263.810730	926.841919	36.435852	263.383728	1168.630615	-7.746730	-169.233261	1501.539429	-107.744316	65.686287	1734.726440	-40.429230	-238.581100	1207.673706	-105.377388	-198.620499	413.175018	-93.053482	238.146637	1356.438965	-32.534939	-90.456779	1717.333618	-72.473930	-300.253296	1047.881104	-11.319087	118.099899	1172.017334	-96.030685	-283.087738	919.311096	-10.599349	-291.908630	1167.168823	-51.125824	-185.527542	566.030884	-20.348791	-101.445747	1788.844482	57.498203	183.310196	662.734253	-15.974422	276.629211	872.330750	93.950134	257.237122	887.721252	120.157074	175.572586	549.463379	-13.511329	-0.809219	1375.429321	-128.663269	-117.020699	1157.901733	-111.949409	-257.309509	1362.042358	-49.536034	-10.237400	1484.038574	76.499603	-293.015228	871.710999	84.580109	-160.667725	650.600525	42.868679	-156.218674	1508.744995	10.133400	260.998047	1054.822144	53.155781	-201.980835	1011.964722	-60.577671	25.828962	1794.036621	76.736847	184.933838	981.710999	-19.944414	-136.045380	753.250671	67.011314	-140.922165	1093.288574	90.449753	114.102951	629.994141	50.257545	126.709763	1506.409546	29.140013	-3.523899	1347.440552	118.750534	-257.090912	944.630859	63.478481	211.897659	935.162109	102.868202	118.701241	1089.991211	89.523476																																																																																																																																																																																																																																																																																																																																																																																																																																																																																																																																																																																																															
79	0.658333				163.570511	83.623650	96.352913	-35.524384	1843.434937	-14.056084	-178.332718	79.236610	82.931717	129.168228	68.418221	-191.229065	126.846100	85.656067	51.728062	-204.391388	76.928665	27.150709	237.518494	1221.744507	-66.844612	-124.347832	76.097328	42.938007	-116.915665	75.848000	-194.257919	142.859604	1501.836182	-110.335419	179.475540	124.540756	-134.920654	208.030899	79.396271	42.532963	-7.165347	1553.864868	-98.709877	-179.032166	127.473938	-146.438507	-303.096649	865.303955	45.406754	196.144211	332.933258	-93.439590	263.803833	926.895203	36.286785	263.324982	1168.687744	-7.820936	-169.315720	1501.550537	-107.790489	65.654991	1734.798218	-40.389011	-238.641022	1207.734619	-105.411102	-198.664612	413.128174	-93.048157	238.128098	1356.488159	-32.543755	-90.556473	1717.366699	-72.476036	-300.324585	1047.854370	-11.416227	118.002785	1172.080933	-96.088036	-283.151215	919.283386	-10.704142	-291.953125	1167.122070	-51.201450	-185.584137	565.989807	-20.408831	-101.492172	1788.804443	57.529922	183.310547	662.802063	-16.026337	276.625916	872.381409	93.797371	257.206390	887.677673	119.985260	175.518585	549.545288	-13.563293	-0.871658	1375.515625	-128.700211	-117.063210	1158.083374	-112.241325	-257.345520	1362.035278	-49.594326	-10.333147	1484.016846	76.446930	-293.068756	871.631531	84.471916	-160.731964	650.537598	42.787735	-156.292801	1508.686523	10.058315	260.975800	1054.862183	53.063004	-202.044418	1011.981812	-60.572857	25.750410	1794.053955	76.776817	184.902863	981.809937	-19.994570	-136.095352	753.233948	66.955902	-140.947617	1093.214355	90.416519	114.062469	630.003540	50.224758	126.693535	1506.442627	29.128523	-3.640521	1347.371704	118.679398	-257.155823	944.530762	63.340034	210.516983	933.686768	101.639771	118.698853	1089.992432	89.497971																																																																																																																																																																																																																																																																																																																																																																																																																																																																																																																																																																																																															
